<svg id="Layer_1" data-name="Layer 1" xmlns="http://www.w3.org/2000/svg" xmlns:xlink="http://www.w3.org/1999/xlink" viewBox="0 0 254.26 293.6"><defs><style>.cls-1,.cls-2{fill:none;stroke-miterlimit:10;}.cls-1{stroke:#fff;stroke-width:1.61px;opacity:0.2;}.cls-2{stroke-width:6.76px;stroke:url(#linear-gradient);}</style><linearGradient id="linear-gradient" x1="59.54" y1="151.2" x2="253.41" y2="151.2" gradientUnits="userSpaceOnUse"><stop offset="0" stop-color="#3fa84b"/><stop offset="0.02" stop-color="#52a949"/><stop offset="0.07" stop-color="#85ac44"/><stop offset="0.13" stop-color="#afaf40"/><stop offset="0.18" stop-color="#cfb13c"/><stop offset="0.23" stop-color="#e6b33a"/><stop offset="0.28" stop-color="#f4b438"/><stop offset="0.32" stop-color="#f9b438"/><stop offset="0.36" stop-color="#dcb352"/><stop offset="0.43" stop-color="#b5b274"/><stop offset="0.5" stop-color="#93b292"/><stop offset="0.57" stop-color="#78b1ab"/><stop offset="0.65" stop-color="#62b1bd"/><stop offset="0.74" stop-color="#54b0cb"/><stop offset="0.84" stop-color="#4bb0d3"/><stop offset="1" stop-color="#48b0d5"/></linearGradient></defs><title>Graph #1</title><polygon class="cls-1" points="253.46 73.86 127.13 0.93 0.8 73.86 0.8 219.74 127.13 292.67 253.46 219.74 253.46 73.86"/><polygon class="cls-1" points="229.13 87.91 127.13 29.02 25.13 87.91 25.13 205.69 127.13 264.58 229.13 205.69 229.13 87.91"/><polygon class="cls-1" points="198.7 105.44 127.12 64.12 55.53 105.46 55.52 188.13 127.1 229.45 198.69 188.11 198.7 105.44"/><polygon class="cls-1" points="174.74 119.28 127.12 91.78 79.48 119.29 79.48 174.3 127.1 201.79 174.74 174.28 174.74 119.28"/><polygon class="cls-1" points="146.88 135.37 127.11 123.96 107.35 135.38 107.34 158.2 127.11 169.61 146.87 158.2 146.88 135.37"/><polygon class="cls-1" points="132.35 143.76 127.11 140.73 121.87 143.76 121.87 149.82 127.11 152.84 132.35 149.81 132.35 143.76"/><path class="cls-2" d="M65.41,163.36A127.43,127.43,0,0,0,70.33,135c1.39-24.23.56-45.61,20.24-53.59,25-10.14,48,12.17,98,0s71-16.89,57.44,21-39.87,24.33-57.44,85.16-37.85,42.58-55.42,27.71-12.84-17.57-38.52-18.25-36.5-8.11-29.74-31.76C65.07,164.52,65.25,163.92,65.41,163.36Z" transform="translate(-26.95 -3.2)"/></svg>