<svg id="Layer_1" data-name="Layer 1" xmlns="http://www.w3.org/2000/svg" xmlns:xlink="http://www.w3.org/1999/xlink" viewBox="0 0 282.84 37.63"><defs><style>.cls-1{fill:#fff;}.cls-2{fill:url(#linear-gradient);}</style><linearGradient id="linear-gradient" x1="206.43" y1="20.05" x2="245.32" y2="20.05" gradientUnits="userSpaceOnUse"><stop offset="0" stop-color="#a922bc"/><stop offset="0.07" stop-color="#b5319e"/><stop offset="0.23" stop-color="#d0515d"/><stop offset="0.36" stop-color="#e3682e"/><stop offset="0.47" stop-color="#f07711"/><stop offset="0.53" stop-color="#f47c06"/><stop offset="0.62" stop-color="#d08732"/><stop offset="0.8" stop-color="#879d89"/><stop offset="0.94" stop-color="#5aabc0"/><stop offset="1" stop-color="#48b0d5"/></linearGradient></defs><title>logo</title><path class="cls-1" d="M2.82,2H16.54C27.83,2,36,9.62,36,20.18c0,10.41-8.33,18.23-19.47,18.23H2.82ZM9.29,7.91v24.6h7.3c7.05,0,12.54-5.13,12.54-12.22S23.9,7.91,16.59,7.91Z" transform="translate(-2.82 -1.25)"/><path class="cls-1" d="M49.38,38.41H42.64L59.74,1.69h1.45L78.28,38.41H71.39l-3.21-7.25H52.54ZM54.82,26H65.9L60.36,13.5Z" transform="translate(-2.82 -1.25)"/><path class="cls-1" d="M81.18,2h30.61V7.91h-12v30.5H93.35V7.91H81.18Z" transform="translate(-2.82 -1.25)"/><path class="cls-1" d="M121.58,38.41h-6.73L131.94,1.69h1.45l17.09,36.72h-6.89l-3.21-7.25H124.74ZM127,26H138.1L132.56,13.5Z" transform="translate(-2.82 -1.25)"/><path class="cls-1" d="M198.23,38.41h-6.32l-.15-20.92L180.52,38.72h-2.23L167,17.85l-.1,20.56h-6.27l1-36.56h2.84l15.13,26.52L194.35,1.85h2.85Z" transform="translate(-2.82 -1.25)"/><path class="cls-1" d="M267.74,26.86,278.93,2h6.73L268.78,38.88H266.6L249.72,2h6.88Z" transform="translate(-2.82 -1.25)"/><path class="cls-2" d="M225.85,1.25c11.29,0,19.47,7.93,19.47,18.8s-8.34,18.8-19.47,18.8-19.42-8-19.42-18.8C206.43,9.54,214.92,1.25,225.85,1.25Zm.05,32c7,0,12.54-5.65,12.54-13S233.2,7.05,225.9,7.05s-12.53,5.65-12.53,13.11C213.37,27.46,218.86,33.21,225.9,33.21Z" transform="translate(-2.82 -1.25)"/></svg>