<svg id="Layer_1" data-name="Layer 1" xmlns="http://www.w3.org/2000/svg" xmlns:xlink="http://www.w3.org/1999/xlink" viewBox="0 0 249.37 38.86"><defs><style>.cls-1{fill:#f9ead4;}.cls-2{fill:url(#linear-gradient);}</style><linearGradient id="linear-gradient" x1="186.17" y1="24.55" x2="217.44" y2="24.55" gradientUnits="userSpaceOnUse"><stop offset="0" stop-color="#a922bc"/><stop offset="0.07" stop-color="#b5319e"/><stop offset="0.23" stop-color="#d0515d"/><stop offset="0.36" stop-color="#e3682e"/><stop offset="0.47" stop-color="#f07711"/><stop offset="0.53" stop-color="#f47c06"/><stop offset="0.62" stop-color="#d08732"/><stop offset="0.8" stop-color="#879d89"/><stop offset="0.94" stop-color="#5aabc0"/><stop offset="1" stop-color="#48b0d5"/></linearGradient></defs><title>logo</title><path class="cls-1" d="M1.33.73H18.15A24.08,24.08,0,0,1,29.09,3.12a17.68,17.68,0,0,1,7.42,6.76A19.09,19.09,0,0,1,39.14,20a19.12,19.12,0,0,1-2.63,10.09,17.74,17.74,0,0,1-7.42,6.76A24.21,24.21,0,0,1,18.15,39.2H1.33ZM17.82,33.15a16.37,16.37,0,0,0,7.45-1.62,11.6,11.6,0,0,0,4.94-4.61,13.62,13.62,0,0,0,1.73-7,13.58,13.58,0,0,0-1.73-7,11.56,11.56,0,0,0-4.94-4.62,16.37,16.37,0,0,0-7.45-1.62H8.47V33.15Z" transform="translate(-1.33 -0.73)"/><path class="cls-1" d="M67.2,12.63q3.43,3.1,3.44,9.37V39.2H64.15V35.63a8,8,0,0,1-3.6,2.94,14,14,0,0,1-5.63,1,13.82,13.82,0,0,1-5.77-1.12,8.9,8.9,0,0,1-3.82-3.13A8,8,0,0,1,44,30.79a7.78,7.78,0,0,1,2.94-6.35q2.94-2.39,9.26-2.39h7.59v-.44a6,6,0,0,0-1.84-4.72,8,8,0,0,0-5.47-1.65,15.64,15.64,0,0,0-4.87.77,11.87,11.87,0,0,0-4,2.14l-2.69-5a16.89,16.89,0,0,1,5.55-2.7,24.79,24.79,0,0,1,6.87-.93Q63.78,9.52,67.2,12.63ZM60.94,33.4A6.46,6.46,0,0,0,63.77,30V26.61H56.68c-4,0-5.94,1.31-5.94,3.91a3.5,3.5,0,0,0,1.49,3,6.73,6.73,0,0,0,4.12,1.1A8.86,8.86,0,0,0,60.94,33.4Z" transform="translate(-1.33 -0.73)"/><path class="cls-1" d="M97.08,37.61a8.11,8.11,0,0,1-3,1.48,13.19,13.19,0,0,1-3.65.49q-4.85,0-7.48-2.52c-1.75-1.69-2.63-4.14-2.63-7.37V15.57H75.53v-5.5h4.84V3.36h6.87v6.71H95.1v5.5H87.24v14a4.62,4.62,0,0,0,1,3.27,3.92,3.92,0,0,0,3,1.12,6,6,0,0,0,3.85-1.21Z" transform="translate(-1.33 -0.73)"/><path class="cls-1" d="M123.87,12.63q3.43,3.1,3.43,9.37V39.2h-6.48V35.63a8,8,0,0,1-3.6,2.94,14.06,14.06,0,0,1-5.63,1,13.86,13.86,0,0,1-5.78-1.12A9,9,0,0,1,102,35.33a8,8,0,0,1-1.34-4.54,7.78,7.78,0,0,1,2.94-6.35q2.94-2.39,9.26-2.39h7.58v-.44a6,6,0,0,0-1.84-4.72,8,8,0,0,0-5.47-1.65,15.58,15.58,0,0,0-4.86.77,11.87,11.87,0,0,0-4,2.14l-2.69-5a16.89,16.89,0,0,1,5.55-2.7A24.79,24.79,0,0,1,114,9.52Q120.43,9.52,123.87,12.63ZM117.6,33.4A6.37,6.37,0,0,0,120.43,30V26.61h-7.09c-4,0-5.93,1.31-5.93,3.91a3.49,3.49,0,0,0,1.48,3,6.77,6.77,0,0,0,4.12,1.1A8.81,8.81,0,0,0,117.6,33.4Z" transform="translate(-1.33 -0.73)"/><path class="cls-1" d="M172.1,39.2,172,13.7,159.4,34.8h-3.19L143.57,14V39.2h-6.81V.73h5.88l15.28,25.5,15-25.5h5.88l.06,38.47Z" transform="translate(-1.33 -0.73)"/><path class="cls-2" d="M193.75,37.66a14,14,0,0,1-5.57-5.36,15.1,15.1,0,0,1-2-7.77,15,15,0,0,1,2-7.75,14,14,0,0,1,5.57-5.34,17.86,17.86,0,0,1,16.11,0,14.13,14.13,0,0,1,5.58,5.34,15,15,0,0,1,2,7.75,15.19,15.19,0,0,1-2,7.77,14,14,0,0,1-5.58,5.36,17.86,17.86,0,0,1-16.11,0ZM208,31.18a9.12,9.12,0,0,0,2.48-6.65A9.09,9.09,0,0,0,208,17.88a9,9,0,0,0-12.5,0,9.15,9.15,0,0,0-2.45,6.65,9.18,9.18,0,0,0,2.45,6.65,9,9,0,0,0,12.5,0Z" transform="translate(-1.33 -0.73)"/><path class="cls-1" d="M250.7,9.85,238.11,39.2H231L218.43,9.85h7.15l9.12,21.77,9.4-21.77Z" transform="translate(-1.33 -0.73)"/></svg>